<svg xmlns="http://www.w3.org/2000/svg" xmlns:xlink="http://www.w3.org/1999/xlink" width="83" zoomAndPan="magnify" viewBox="0 0 62.25 62.249997" height="83" preserveAspectRatio="xMidYMid meet" version="1.0"><defs><clipPath id="36cbc601d6"><path d="M 8 8 L 53 8 L 53 53 L 8 53 Z M 8 8 " clip-rule="nonzero"/></clipPath><clipPath id="f4e61ec48d"><path d="M 35.015625 61.121094 L -0.0351562 34.988281 L 26.097656 -0.0625 L 61.152344 26.070312 Z M 35.015625 61.121094 " clip-rule="nonzero"/></clipPath><clipPath id="73e78fc66b"><path d="M 35.015625 61.121094 L -0.0351562 34.988281 L 26.097656 -0.0625 L 61.152344 26.070312 Z M 35.015625 61.121094 " clip-rule="nonzero"/></clipPath><clipPath id="10bfe1cc61"><path d="M 13.054688 17.507812 C 13.480469 16.933594 13.9375 16.382812 14.417969 15.855469 C 14.898438 15.328125 15.40625 14.824219 15.9375 14.34375 C 16.46875 13.863281 17.019531 13.414062 17.597656 12.988281 C 18.171875 12.5625 18.765625 12.167969 19.382812 11.800781 C 19.996094 11.4375 20.625 11.101562 21.273438 10.796875 C 21.921875 10.492188 22.582031 10.222656 23.257812 9.980469 C 23.929688 9.742188 24.613281 9.535156 25.308594 9.363281 C 26.003906 9.191406 26.703125 9.054688 27.410156 8.953125 C 28.121094 8.847656 28.832031 8.78125 29.546875 8.746094 C 30.257812 8.714844 30.972656 8.714844 31.6875 8.753906 C 32.402344 8.789062 33.113281 8.859375 33.820312 8.96875 C 34.527344 9.074219 35.226562 9.214844 35.921875 9.390625 C 36.613281 9.566406 37.296875 9.777344 37.96875 10.019531 C 38.644531 10.261719 39.300781 10.535156 39.949219 10.84375 C 40.59375 11.152344 41.222656 11.488281 41.835938 11.859375 C 42.449219 12.226562 43.042969 12.625 43.613281 13.054688 C 44.1875 13.480469 44.738281 13.9375 45.269531 14.417969 C 45.796875 14.898438 46.300781 15.40625 46.78125 15.9375 C 47.257812 16.46875 47.710938 17.019531 48.136719 17.597656 C 48.558594 18.171875 48.957031 18.765625 49.320312 19.382812 C 49.6875 19.996094 50.023438 20.625 50.328125 21.273438 C 50.632812 21.921875 50.902344 22.582031 51.140625 23.257812 C 51.382812 23.929688 51.585938 24.613281 51.757812 25.308594 C 51.929688 26.003906 52.070312 26.703125 52.171875 27.410156 C 52.273438 28.121094 52.34375 28.832031 52.375 29.546875 C 52.410156 30.257812 52.40625 30.972656 52.371094 31.6875 C 52.335938 32.402344 52.261719 33.113281 52.15625 33.820312 C 52.050781 34.527344 51.90625 35.226562 51.730469 35.921875 C 51.558594 36.613281 51.347656 37.296875 51.105469 37.96875 C 50.863281 38.644531 50.585938 39.300781 50.28125 39.949219 C 49.972656 40.59375 49.632812 41.222656 49.265625 41.835938 C 48.894531 42.449219 48.496094 43.042969 48.070312 43.613281 C 47.640625 44.1875 47.1875 44.738281 46.707031 45.269531 C 46.222656 45.796875 45.71875 46.300781 45.1875 46.78125 C 44.65625 47.257812 44.101562 47.710938 43.527344 48.136719 C 42.953125 48.558594 42.355469 48.957031 41.742188 49.320312 C 41.128906 49.6875 40.496094 50.023438 39.847656 50.328125 C 39.203125 50.632812 38.542969 50.902344 37.867188 51.140625 C 37.191406 51.382812 36.507812 51.585938 35.816406 51.757812 C 35.121094 51.929688 34.417969 52.070312 33.710938 52.171875 C 33.003906 52.273438 32.292969 52.34375 31.578125 52.375 C 30.863281 52.410156 30.148438 52.40625 29.433594 52.371094 C 28.722656 52.335938 28.011719 52.261719 27.304688 52.15625 C 26.597656 52.050781 25.894531 51.90625 25.203125 51.730469 C 24.507812 51.558594 23.824219 51.347656 23.152344 51.105469 C 22.480469 50.863281 21.820312 50.585938 21.175781 50.28125 C 20.527344 49.972656 19.898438 49.632812 19.289062 49.265625 C 18.675781 48.894531 18.082031 48.496094 17.507812 48.070312 C 16.933594 47.640625 16.382812 47.1875 15.855469 46.707031 C 15.328125 46.222656 14.824219 45.71875 14.34375 45.1875 C 13.863281 44.65625 13.414062 44.101562 12.988281 43.527344 C 12.5625 42.953125 12.167969 42.355469 11.800781 41.742188 C 11.4375 41.128906 11.101562 40.496094 10.796875 39.847656 C 10.492188 39.203125 10.222656 38.542969 9.980469 37.867188 C 9.742188 37.191406 9.535156 36.507812 9.363281 35.816406 C 9.191406 35.121094 9.054688 34.417969 8.953125 33.710938 C 8.847656 33.003906 8.78125 32.292969 8.746094 31.578125 C 8.714844 30.863281 8.714844 30.148438 8.753906 29.433594 C 8.789062 28.722656 8.859375 28.011719 8.96875 27.304688 C 9.074219 26.597656 9.214844 25.894531 9.390625 25.203125 C 9.566406 24.507812 9.777344 23.824219 10.019531 23.152344 C 10.261719 22.480469 10.535156 21.820312 10.84375 21.175781 C 11.152344 20.527344 11.488281 19.898438 11.859375 19.289062 C 12.226562 18.675781 12.625 18.082031 13.054688 17.507812 Z M 13.054688 17.507812 " clip-rule="nonzero"/></clipPath><linearGradient x1="1745.263481" gradientTransform="matrix(0.203479, -0.272924, 0.272924, 0.203479, -409.658267, 481.579642)" y1="244.834" x2="1924.8886" gradientUnits="userSpaceOnUse" y2="244.834" id="d6788992e1"><stop stop-opacity="1" stop-color="rgb(37.249756%, 25.489807%, 98.429871%)" offset="0"/><stop stop-opacity="1" stop-color="rgb(37.249756%, 25.489807%, 98.429871%)" offset="0.125"/><stop stop-opacity="1" stop-color="rgb(37.249756%, 25.489807%, 98.429871%)" offset="0.140625"/><stop stop-opacity="1" stop-color="rgb(37.350464%, 25.482178%, 98.429871%)" offset="0.148438"/><stop stop-opacity="1" stop-color="rgb(37.593079%, 25.463867%, 98.429871%)" offset="0.15625"/><stop stop-opacity="1" stop-color="rgb(37.876892%, 25.444031%, 98.429871%)" offset="0.164062"/><stop stop-opacity="1" stop-color="rgb(38.160706%, 25.422668%, 98.429871%)" offset="0.171875"/><stop stop-opacity="1" stop-color="rgb(38.444519%, 25.402832%, 98.429871%)" offset="0.179688"/><stop stop-opacity="1" stop-color="rgb(38.728333%, 25.382996%, 98.429871%)" offset="0.1875"/><stop stop-opacity="1" stop-color="rgb(39.012146%, 25.363159%, 98.429871%)" offset="0.195312"/><stop stop-opacity="1" stop-color="rgb(39.297485%, 25.341797%, 98.429871%)" offset="0.203125"/><stop stop-opacity="1" stop-color="rgb(39.581299%, 25.32196%, 98.429871%)" offset="0.210937"/><stop stop-opacity="1" stop-color="rgb(39.865112%, 25.302124%, 98.429871%)" offset="0.21875"/><stop stop-opacity="1" stop-color="rgb(40.148926%, 25.280762%, 98.429871%)" offset="0.226562"/><stop stop-opacity="1" stop-color="rgb(40.432739%, 25.260925%, 98.429871%)" offset="0.234375"/><stop stop-opacity="1" stop-color="rgb(40.716553%, 25.241089%, 98.429871%)" offset="0.242187"/><stop stop-opacity="1" stop-color="rgb(41.000366%, 25.219727%, 98.429871%)" offset="0.25"/><stop stop-opacity="1" stop-color="rgb(41.28418%, 25.19989%, 98.429871%)" offset="0.257812"/><stop stop-opacity="1" stop-color="rgb(41.567993%, 25.180054%, 98.429871%)" offset="0.265625"/><stop stop-opacity="1" stop-color="rgb(41.851807%, 25.158691%, 98.429871%)" offset="0.273438"/><stop stop-opacity="1" stop-color="rgb(42.13562%, 25.138855%, 98.429871%)" offset="0.28125"/><stop stop-opacity="1" stop-color="rgb(42.419434%, 25.119019%, 98.429871%)" offset="0.289062"/><stop stop-opacity="1" stop-color="rgb(42.703247%, 25.097656%, 98.429871%)" offset="0.296875"/><stop stop-opacity="1" stop-color="rgb(42.987061%, 25.07782%, 98.429871%)" offset="0.304687"/><stop stop-opacity="1" stop-color="rgb(43.270874%, 25.057983%, 98.429871%)" offset="0.3125"/><stop stop-opacity="1" stop-color="rgb(43.554688%, 25.036621%, 98.429871%)" offset="0.320312"/><stop stop-opacity="1" stop-color="rgb(43.838501%, 25.016785%, 98.429871%)" offset="0.328125"/><stop stop-opacity="1" stop-color="rgb(44.122314%, 24.996948%, 98.429871%)" offset="0.335937"/><stop stop-opacity="1" stop-color="rgb(44.406128%, 24.975586%, 98.429871%)" offset="0.34375"/><stop stop-opacity="1" stop-color="rgb(44.689941%, 24.95575%, 98.429871%)" offset="0.351562"/><stop stop-opacity="1" stop-color="rgb(44.973755%, 24.935913%, 98.429871%)" offset="0.359375"/><stop stop-opacity="1" stop-color="rgb(45.257568%, 24.914551%, 98.429871%)" offset="0.367187"/><stop stop-opacity="1" stop-color="rgb(45.541382%, 24.894714%, 98.429871%)" offset="0.375"/><stop stop-opacity="1" stop-color="rgb(45.825195%, 24.874878%, 98.429871%)" offset="0.382812"/><stop stop-opacity="1" stop-color="rgb(46.109009%, 24.855042%, 98.429871%)" offset="0.390625"/><stop stop-opacity="1" stop-color="rgb(46.392822%, 24.833679%, 98.429871%)" offset="0.398437"/><stop stop-opacity="1" stop-color="rgb(46.676636%, 24.813843%, 98.429871%)" offset="0.40625"/><stop stop-opacity="1" stop-color="rgb(46.960449%, 24.794006%, 98.429871%)" offset="0.414062"/><stop stop-opacity="1" stop-color="rgb(47.244263%, 24.772644%, 98.429871%)" offset="0.421875"/><stop stop-opacity="1" stop-color="rgb(47.529602%, 24.752808%, 98.429871%)" offset="0.429687"/><stop stop-opacity="1" stop-color="rgb(47.813416%, 24.732971%, 98.429871%)" offset="0.4375"/><stop stop-opacity="1" stop-color="rgb(48.097229%, 24.711609%, 98.429871%)" offset="0.445312"/><stop stop-opacity="1" stop-color="rgb(48.381042%, 24.691772%, 98.429871%)" offset="0.453125"/><stop stop-opacity="1" stop-color="rgb(48.664856%, 24.671936%, 98.429871%)" offset="0.460937"/><stop stop-opacity="1" stop-color="rgb(48.948669%, 24.650574%, 98.429871%)" offset="0.46875"/><stop stop-opacity="1" stop-color="rgb(49.232483%, 24.630737%, 98.429871%)" offset="0.476562"/><stop stop-opacity="1" stop-color="rgb(49.516296%, 24.610901%, 98.429871%)" offset="0.484375"/><stop stop-opacity="1" stop-color="rgb(49.80011%, 24.589539%, 98.429871%)" offset="0.492187"/><stop stop-opacity="1" stop-color="rgb(50.083923%, 24.569702%, 98.429871%)" offset="0.5"/><stop stop-opacity="1" stop-color="rgb(50.367737%, 24.549866%, 98.429871%)" offset="0.507812"/><stop stop-opacity="1" stop-color="rgb(50.65155%, 24.528503%, 98.429871%)" offset="0.515625"/><stop stop-opacity="1" stop-color="rgb(50.935364%, 24.508667%, 98.429871%)" offset="0.523438"/><stop stop-opacity="1" stop-color="rgb(51.219177%, 24.488831%, 98.429871%)" offset="0.53125"/><stop stop-opacity="1" stop-color="rgb(51.502991%, 24.467468%, 98.429871%)" offset="0.539062"/><stop stop-opacity="1" stop-color="rgb(51.786804%, 24.447632%, 98.429871%)" offset="0.546875"/><stop stop-opacity="1" stop-color="rgb(52.070618%, 24.427795%, 98.429871%)" offset="0.554687"/><stop stop-opacity="1" stop-color="rgb(52.354431%, 24.406433%, 98.429871%)" offset="0.5625"/><stop stop-opacity="1" stop-color="rgb(52.638245%, 24.386597%, 98.429871%)" offset="0.570312"/><stop stop-opacity="1" stop-color="rgb(52.922058%, 24.36676%, 98.429871%)" offset="0.578125"/><stop stop-opacity="1" stop-color="rgb(53.205872%, 24.346924%, 98.429871%)" offset="0.585937"/><stop stop-opacity="1" stop-color="rgb(53.489685%, 24.325562%, 98.429871%)" offset="0.59375"/><stop stop-opacity="1" stop-color="rgb(53.514099%, 24.324036%, 98.429871%)" offset="0.601562"/><stop stop-opacity="1" stop-color="rgb(53.144836%, 24.351501%, 98.429871%)" offset="0.605469"/><stop stop-opacity="1" stop-color="rgb(52.893066%, 24.369812%, 98.429871%)" offset="0.609375"/><stop stop-opacity="1" stop-color="rgb(52.639771%, 24.386597%, 98.429871%)" offset="0.613281"/><stop stop-opacity="1" stop-color="rgb(52.388%, 24.404907%, 98.429871%)" offset="0.617187"/><stop stop-opacity="1" stop-color="rgb(52.134705%, 24.423218%, 98.429871%)" offset="0.621094"/><stop stop-opacity="1" stop-color="rgb(51.882935%, 24.441528%, 98.429871%)" offset="0.625"/><stop stop-opacity="1" stop-color="rgb(51.629639%, 24.459839%, 98.429871%)" offset="0.628906"/><stop stop-opacity="1" stop-color="rgb(51.377869%, 24.478149%, 98.429871%)" offset="0.632812"/><stop stop-opacity="1" stop-color="rgb(51.124573%, 24.494934%, 98.429871%)" offset="0.636719"/><stop stop-opacity="1" stop-color="rgb(50.872803%, 24.513245%, 98.429871%)" offset="0.640625"/><stop stop-opacity="1" stop-color="rgb(50.619507%, 24.531555%, 98.429871%)" offset="0.644531"/><stop stop-opacity="1" stop-color="rgb(50.367737%, 24.549866%, 98.429871%)" offset="0.648437"/><stop stop-opacity="1" stop-color="rgb(50.114441%, 24.568176%, 98.429871%)" offset="0.652344"/><stop stop-opacity="1" stop-color="rgb(49.862671%, 24.586487%, 98.429871%)" offset="0.65625"/><stop stop-opacity="1" stop-color="rgb(49.609375%, 24.603271%, 98.429871%)" offset="0.660156"/><stop stop-opacity="1" stop-color="rgb(49.357605%, 24.621582%, 98.429871%)" offset="0.664062"/><stop stop-opacity="1" stop-color="rgb(49.104309%, 24.639893%, 98.429871%)" offset="0.667969"/><stop stop-opacity="1" stop-color="rgb(48.852539%, 24.658203%, 98.429871%)" offset="0.671875"/><stop stop-opacity="1" stop-color="rgb(48.599243%, 24.676514%, 98.429871%)" offset="0.675781"/><stop stop-opacity="1" stop-color="rgb(48.347473%, 24.694824%, 98.429871%)" offset="0.679688"/><stop stop-opacity="1" stop-color="rgb(48.094177%, 24.713135%, 98.429871%)" offset="0.683594"/><stop stop-opacity="1" stop-color="rgb(47.842407%, 24.731445%, 98.429871%)" offset="0.6875"/><stop stop-opacity="1" stop-color="rgb(47.590637%, 24.74823%, 98.429871%)" offset="0.691406"/><stop stop-opacity="1" stop-color="rgb(47.338867%, 24.766541%, 98.429871%)" offset="0.695312"/><stop stop-opacity="1" stop-color="rgb(47.085571%, 24.784851%, 98.429871%)" offset="0.699219"/><stop stop-opacity="1" stop-color="rgb(46.833801%, 24.803162%, 98.429871%)" offset="0.703125"/><stop stop-opacity="1" stop-color="rgb(46.580505%, 24.821472%, 98.429871%)" offset="0.707031"/><stop stop-opacity="1" stop-color="rgb(46.328735%, 24.839783%, 98.429871%)" offset="0.710937"/><stop stop-opacity="1" stop-color="rgb(46.075439%, 24.856567%, 98.429871%)" offset="0.714844"/><stop stop-opacity="1" stop-color="rgb(45.823669%, 24.874878%, 98.429871%)" offset="0.71875"/><stop stop-opacity="1" stop-color="rgb(45.570374%, 24.893188%, 98.429871%)" offset="0.722656"/><stop stop-opacity="1" stop-color="rgb(45.318604%, 24.911499%, 98.429871%)" offset="0.726563"/><stop stop-opacity="1" stop-color="rgb(45.065308%, 24.92981%, 98.429871%)" offset="0.730469"/><stop stop-opacity="1" stop-color="rgb(44.813538%, 24.94812%, 98.429871%)" offset="0.734375"/><stop stop-opacity="1" stop-color="rgb(44.560242%, 24.964905%, 98.429871%)" offset="0.738281"/><stop stop-opacity="1" stop-color="rgb(44.308472%, 24.983215%, 98.429871%)" offset="0.742188"/><stop stop-opacity="1" stop-color="rgb(44.055176%, 25.001526%, 98.429871%)" offset="0.746094"/><stop stop-opacity="1" stop-color="rgb(43.803406%, 25.019836%, 98.429871%)" offset="0.75"/><stop stop-opacity="1" stop-color="rgb(43.55011%, 25.038147%, 98.429871%)" offset="0.753906"/><stop stop-opacity="1" stop-color="rgb(43.29834%, 25.056458%, 98.429871%)" offset="0.757812"/><stop stop-opacity="1" stop-color="rgb(43.045044%, 25.073242%, 98.429871%)" offset="0.761719"/><stop stop-opacity="1" stop-color="rgb(42.793274%, 25.091553%, 98.429871%)" offset="0.765625"/><stop stop-opacity="1" stop-color="rgb(42.541504%, 25.109863%, 98.429871%)" offset="0.769531"/><stop stop-opacity="1" stop-color="rgb(42.289734%, 25.128174%, 98.429871%)" offset="0.773438"/><stop stop-opacity="1" stop-color="rgb(42.036438%, 25.146484%, 98.429871%)" offset="0.777344"/><stop stop-opacity="1" stop-color="rgb(41.784668%, 25.164795%, 98.429871%)" offset="0.78125"/><stop stop-opacity="1" stop-color="rgb(41.531372%, 25.183105%, 98.429871%)" offset="0.785156"/><stop stop-opacity="1" stop-color="rgb(41.279602%, 25.201416%, 98.429871%)" offset="0.789063"/><stop stop-opacity="1" stop-color="rgb(41.026306%, 25.218201%, 98.429871%)" offset="0.792969"/><stop stop-opacity="1" stop-color="rgb(40.774536%, 25.236511%, 98.429871%)" offset="0.796875"/><stop stop-opacity="1" stop-color="rgb(40.52124%, 25.254822%, 98.429871%)" offset="0.800781"/><stop stop-opacity="1" stop-color="rgb(40.26947%, 25.273132%, 98.429871%)" offset="0.804688"/><stop stop-opacity="1" stop-color="rgb(40.016174%, 25.291443%, 98.429871%)" offset="0.808594"/><stop stop-opacity="1" stop-color="rgb(39.764404%, 25.309753%, 98.429871%)" offset="0.8125"/><stop stop-opacity="1" stop-color="rgb(39.511108%, 25.326538%, 98.429871%)" offset="0.816406"/><stop stop-opacity="1" stop-color="rgb(39.259338%, 25.344849%, 98.429871%)" offset="0.820312"/><stop stop-opacity="1" stop-color="rgb(39.006042%, 25.363159%, 98.429871%)" offset="0.824219"/><stop stop-opacity="1" stop-color="rgb(38.754272%, 25.38147%, 98.429871%)" offset="0.828125"/><stop stop-opacity="1" stop-color="rgb(38.500977%, 25.39978%, 98.429871%)" offset="0.832031"/><stop stop-opacity="1" stop-color="rgb(38.249207%, 25.418091%, 98.429871%)" offset="0.835938"/><stop stop-opacity="1" stop-color="rgb(37.995911%, 25.434875%, 98.429871%)" offset="0.839844"/><stop stop-opacity="1" stop-color="rgb(37.744141%, 25.453186%, 98.429871%)" offset="0.84375"/><stop stop-opacity="1" stop-color="rgb(37.496948%, 25.471497%, 98.429871%)" offset="0.847656"/><stop stop-opacity="1" stop-color="rgb(37.249756%, 25.489807%, 98.429871%)" offset="0.851563"/><stop stop-opacity="1" stop-color="rgb(37.249756%, 25.489807%, 98.429871%)" offset="0.859375"/><stop stop-opacity="1" stop-color="rgb(37.249756%, 25.489807%, 98.429871%)" offset="0.875"/><stop stop-opacity="1" stop-color="rgb(37.249756%, 25.489807%, 98.429871%)" offset="1"/></linearGradient><clipPath id="2c3aca3e0a"><path d="M 17.203125 17.390625 L 25 17.390625 L 25 25 L 17.203125 25 Z M 17.203125 17.390625 " clip-rule="nonzero"/></clipPath><clipPath id="3315fb9fb9"><path d="M 17.203125 17.390625 L 34 17.390625 L 34 34 L 17.203125 34 Z M 17.203125 17.390625 " clip-rule="nonzero"/></clipPath><clipPath id="aa228faa63"><path d="M 36 37 L 43.878906 37 L 43.878906 44 L 36 44 Z M 36 37 " clip-rule="nonzero"/></clipPath><clipPath id="7649a9249b"><path d="M 27 27 L 43.878906 27 L 43.878906 44 L 27 44 Z M 27 27 " clip-rule="nonzero"/></clipPath><clipPath id="3c8ff93fcd"><path d="M 17.203125 17.390625 L 43.878906 17.390625 L 43.878906 44 L 17.203125 44 Z M 17.203125 17.390625 " clip-rule="nonzero"/></clipPath></defs><g clip-path="url(#36cbc601d6)"><g clip-path="url(#f4e61ec48d)"><g clip-path="url(#73e78fc66b)"><g clip-path="url(#10bfe1cc61)"><path fill="url(#d6788992e1)" d="M -12.226562 36.796875 L 36.796875 73.347656 L 73.347656 24.324219 L 24.324219 -12.226562 Z M -12.226562 36.796875 " fill-rule="nonzero"/></g></g></g></g><g clip-path="url(#2c3aca3e0a)"><path fill="#ffffff" d="M 17.929688 20.59375 L 20.53125 17.992188 C 20.726562 17.804688 20.949219 17.664062 21.199219 17.5625 C 21.449219 17.464844 21.710938 17.414062 21.980469 17.417969 C 22.25 17.421875 22.511719 17.476562 22.757812 17.578125 C 23.007812 17.683594 23.226562 17.832031 23.417969 18.023438 C 23.609375 18.210938 23.757812 18.433594 23.859375 18.679688 C 23.964844 18.929688 24.019531 19.1875 24.023438 19.457031 C 24.023438 19.730469 23.976562 19.988281 23.875 20.238281 C 23.777344 20.492188 23.632812 20.714844 23.449219 20.90625 L 20.84375 23.507812 C 20.652344 23.695312 20.429688 23.839844 20.175781 23.9375 C 19.925781 24.039062 19.667969 24.085938 19.398438 24.082031 C 19.128906 24.082031 18.867188 24.027344 18.617188 23.921875 C 18.371094 23.820312 18.152344 23.671875 17.960938 23.480469 C 17.769531 23.289062 17.621094 23.070312 17.515625 22.820312 C 17.414062 22.570312 17.359375 22.3125 17.355469 22.042969 C 17.351562 21.773438 17.402344 21.511719 17.5 21.261719 C 17.601562 21.011719 17.742188 20.789062 17.929688 20.59375 Z M 17.929688 20.59375 " fill-opacity="1" fill-rule="nonzero"/></g><g clip-path="url(#3315fb9fb9)"><path fill="#ffffff" d="M 18.121094 30.277344 L 30.339844 18.058594 C 30.535156 17.871094 30.757812 17.726562 31.007812 17.628906 C 31.257812 17.527344 31.519531 17.480469 31.789062 17.484375 C 32.058594 17.484375 32.316406 17.539062 32.566406 17.644531 C 32.8125 17.746094 33.035156 17.894531 33.226562 18.085938 C 33.414062 18.277344 33.5625 18.496094 33.667969 18.746094 C 33.773438 18.992188 33.824219 19.253906 33.828125 19.523438 C 33.832031 19.792969 33.78125 20.054688 33.683594 20.304688 C 33.585938 20.554688 33.441406 20.777344 33.253906 20.972656 L 21.035156 33.191406 C 20.84375 33.390625 20.621094 33.546875 20.363281 33.65625 C 20.109375 33.765625 19.84375 33.824219 19.566406 33.824219 C 19.292969 33.828125 19.023438 33.777344 18.769531 33.671875 C 18.511719 33.566406 18.285156 33.417969 18.089844 33.222656 C 17.894531 33.027344 17.742188 32.800781 17.636719 32.542969 C 17.535156 32.285156 17.484375 32.019531 17.484375 31.742188 C 17.488281 31.464844 17.542969 31.199219 17.65625 30.945312 C 17.765625 30.691406 17.917969 30.46875 18.121094 30.277344 Z M 18.121094 30.277344 " fill-opacity="1" fill-rule="nonzero"/></g><g clip-path="url(#aa228faa63)"><path fill="#ffffff" d="M 43.0625 40.519531 L 40.460938 43.121094 C 40.265625 43.316406 40.042969 43.464844 39.789062 43.566406 C 39.539062 43.671875 39.273438 43.722656 39 43.722656 C 38.726562 43.722656 38.464844 43.671875 38.214844 43.566406 C 37.960938 43.464844 37.738281 43.316406 37.542969 43.121094 C 37.351562 42.929688 37.203125 42.707031 37.097656 42.453125 C 36.992188 42.203125 36.941406 41.9375 36.941406 41.664062 C 36.941406 41.390625 36.992188 41.128906 37.097656 40.875 C 37.203125 40.625 37.351562 40.402344 37.542969 40.207031 L 40.144531 37.605469 C 40.339844 37.417969 40.5625 37.277344 40.8125 37.175781 C 41.066406 37.078125 41.324219 37.027344 41.59375 37.03125 C 41.863281 37.035156 42.125 37.089844 42.371094 37.191406 C 42.621094 37.296875 42.839844 37.445312 43.03125 37.636719 C 43.222656 37.824219 43.371094 38.046875 43.472656 38.292969 C 43.578125 38.542969 43.632812 38.800781 43.636719 39.074219 C 43.636719 39.34375 43.589844 39.601562 43.488281 39.851562 C 43.390625 40.105469 43.246094 40.328125 43.0625 40.519531 Z M 43.0625 40.519531 " fill-opacity="1" fill-rule="nonzero"/></g><g clip-path="url(#7649a9249b)"><path fill="#ffffff" d="M 43.121094 30.839844 L 30.902344 43.070312 C 30.707031 43.257812 30.484375 43.398438 30.234375 43.5 C 29.984375 43.597656 29.722656 43.648438 29.453125 43.644531 C 29.183594 43.640625 28.921875 43.589844 28.675781 43.484375 C 28.425781 43.378906 28.207031 43.230469 28.015625 43.039062 C 27.824219 42.851562 27.675781 42.628906 27.574219 42.382812 C 27.46875 42.132812 27.414062 41.875 27.410156 41.605469 C 27.410156 41.335938 27.457031 41.074219 27.558594 40.824219 C 27.65625 40.570312 27.800781 40.347656 27.988281 40.15625 L 40.207031 27.925781 C 40.402344 27.738281 40.625 27.59375 40.875 27.496094 C 41.125 27.394531 41.386719 27.347656 41.65625 27.347656 C 41.925781 27.351562 42.183594 27.40625 42.433594 27.511719 C 42.679688 27.613281 42.902344 27.761719 43.09375 27.953125 C 43.28125 28.144531 43.429688 28.363281 43.535156 28.613281 C 43.640625 28.859375 43.691406 29.121094 43.695312 29.390625 C 43.699219 29.660156 43.648438 29.921875 43.550781 30.171875 C 43.453125 30.421875 43.308594 30.644531 43.121094 30.839844 Z M 43.121094 30.839844 " fill-opacity="1" fill-rule="nonzero"/></g><g clip-path="url(#3c8ff93fcd)"><path fill="#ffffff" d="M 43.761719 19.820312 L 43.761719 23.054688 C 43.765625 23.5 43.628906 23.898438 43.359375 24.246094 C 43.085938 24.597656 42.738281 24.828125 42.308594 24.941406 C 41.878906 25.050781 41.460938 25.019531 41.054688 24.847656 C 40.644531 24.671875 40.335938 24.390625 40.121094 24.003906 L 21.199219 42.894531 C 21.007812 43.078125 20.785156 43.222656 20.53125 43.320312 C 20.28125 43.421875 20.023438 43.46875 19.75 43.46875 C 19.480469 43.464844 19.222656 43.410156 18.972656 43.304688 C 18.726562 43.203125 18.503906 43.054688 18.316406 42.863281 C 18.125 42.671875 17.976562 42.453125 17.871094 42.203125 C 17.765625 41.957031 17.714844 41.695312 17.710938 41.425781 C 17.707031 41.15625 17.757812 40.894531 17.855469 40.644531 C 17.957031 40.394531 18.097656 40.171875 18.285156 39.976562 L 37.105469 21.167969 C 36.898438 21.082031 36.710938 20.964844 36.542969 20.8125 C 36.375 20.660156 36.238281 20.484375 36.132812 20.285156 C 36.027344 20.085938 35.957031 19.875 35.925781 19.652344 C 35.890625 19.429688 35.898438 19.207031 35.941406 18.984375 C 35.988281 18.765625 36.066406 18.558594 36.183594 18.363281 C 36.300781 18.171875 36.445312 18.003906 36.621094 17.863281 C 36.796875 17.71875 36.992188 17.609375 37.203125 17.535156 C 37.417969 17.460938 37.636719 17.425781 37.859375 17.425781 L 41.449219 17.425781 C 41.609375 17.402344 41.769531 17.398438 41.933594 17.414062 C 42.09375 17.429688 42.253906 17.460938 42.40625 17.515625 C 42.5625 17.566406 42.707031 17.636719 42.84375 17.722656 C 42.980469 17.8125 43.105469 17.914062 43.21875 18.03125 C 43.332031 18.148438 43.429688 18.273438 43.511719 18.414062 C 43.59375 18.554688 43.660156 18.703125 43.707031 18.859375 C 43.753906 19.015625 43.78125 19.175781 43.792969 19.335938 C 43.800781 19.5 43.792969 19.660156 43.761719 19.820312 Z M 43.761719 19.820312 " fill-opacity="1" fill-rule="nonzero"/></g></svg>